# xmcd CD database file
#
# Track frame offsets:
#	150
#	17565
#	29375
#	46675
#	58832
#	74765
#	91952
#	101907
#	118222
#	134420
#
# Disc length: 2021 seconds
#
# Revision: 3
# Processed by: cddbd v1.5.2PL0 Copyright (c) Steve Scherf et al.
# Submitted via: CDex 1.51
#
DISCID=8f07e30a
DTITLE=Ray Charles - Seven Spanish Angels And Other Hits
DYEAR=1900
DGENRE=Soul
TTITLE0=Seven Spanish Angels (with Willie Nelson)
TTITLE1=Two Old Cats Like Us (with Hank Williams Jr.)
TTITLE2=Born To Love Me
TTITLE3=Rock And Roll Shoes (B.J. Thomas)
TTITLE4=Anybody With The Blues
TTITLE5=Do I Ever Cross Your Mind
TTITLE6=We Didn't See A Thing (with George Jones and featuring Chet Atkins)
TTITLE7=A Little Bit Of Heaven
TTITLE8=Let Your Love Flow
TTITLE9=Dixie Moon
EXTD=
EXTT0=
EXTT1=
EXTT2=
EXTT3=
EXTT4=
EXTT5=
EXTT6=
EXTT7=
EXTT8=
EXTT9=
PLAYORDER=
